<svg width="645" height="190" viewBox="0 0 645 190" fill="none" xmlns="http://www.w3.org/2000/svg">
<rect x="2" y="2" width="641" height="186" rx="14" fill="white" stroke="#292929" stroke-width="4"/>
<path d="M160.934 98.4695L58.2407 157.391C55.574 158.921 52.25 156.996 52.25 153.922L52.25 36.078C52.25 33.0036 55.574 31.0785 58.2407 32.6085L160.934 91.5305C163.613 93.0677 163.613 96.9323 160.934 98.4695Z" stroke="#292929" stroke-width="4"/>
<path d="M54 33L134 114.5" stroke="#292929" stroke-width="4"/>
<path d="M54 157.5L132 74" stroke="#292929" stroke-width="4"/>
<path d="M228.647 106.357L228.651 116H247C246.249 120.786 241.569 134 228.651 134C217.505 134 206.5 123.074 206.5 111.748C206.5 100.421 217.505 88 228.651 88C234.989 88 241.076 90.6803 243.5 93L250.523 87.0069C244.834 81.7012 237.463 78.5 228.651 78.5C210.603 78.5 196 93.0356 196 111C196 128.964 210.603 143.5 228.651 143.5C247.491 143.5 260 130.309 260 111.748C260 109.615 259.771 107.99 259.49 106.365L228.651 106.352L228.647 106.357Z" fill="#292929"/>
<path d="M279.239 136.639C276.043 136.639 273.273 135.936 270.929 134.53C268.585 133.124 266.767 131.156 265.474 128.628C264.196 126.099 263.557 123.145 263.557 119.764C263.557 116.384 264.196 113.422 265.474 110.879C266.767 108.337 268.585 106.362 270.929 104.956C273.273 103.55 276.043 102.847 279.239 102.847C282.435 102.847 285.205 103.55 287.548 104.956C289.892 106.362 291.703 108.337 292.982 110.879C294.274 113.422 294.92 116.384 294.92 119.764C294.92 123.145 294.274 126.099 292.982 128.628C291.703 131.156 289.892 133.124 287.548 134.53C285.205 135.936 282.435 136.639 279.239 136.639ZM279.281 130.46C281.014 130.46 282.463 129.984 283.628 129.033C284.793 128.067 285.659 126.774 286.227 125.155C286.81 123.536 287.101 121.732 287.101 119.743C287.101 117.74 286.81 115.929 286.227 114.31C285.659 112.676 284.793 111.376 283.628 110.411C282.463 109.445 281.014 108.962 279.281 108.962C277.506 108.962 276.028 109.445 274.849 110.411C273.685 111.376 272.811 112.676 272.229 114.31C271.661 115.929 271.376 117.74 271.376 119.743C271.376 121.732 271.661 123.536 272.229 125.155C272.811 126.774 273.685 128.067 274.849 129.033C276.028 129.984 277.506 130.46 279.281 130.46ZM315.743 136.639C312.547 136.639 309.777 135.936 307.433 134.53C305.089 133.124 303.271 131.156 301.978 128.628C300.7 126.099 300.061 123.145 300.061 119.764C300.061 116.384 300.7 113.422 301.978 110.879C303.271 108.337 305.089 106.362 307.433 104.956C309.777 103.55 312.547 102.847 315.743 102.847C318.939 102.847 321.708 103.55 324.052 104.956C326.396 106.362 328.207 108.337 329.485 110.879C330.778 113.422 331.424 116.384 331.424 119.764C331.424 123.145 330.778 126.099 329.485 128.628C328.207 131.156 326.396 133.124 324.052 134.53C321.708 135.936 318.939 136.639 315.743 136.639ZM315.785 130.46C317.518 130.46 318.967 129.984 320.132 129.033C321.297 128.067 322.163 126.774 322.731 125.155C323.314 123.536 323.605 121.732 323.605 119.743C323.605 117.74 323.314 115.929 322.731 114.31C322.163 112.676 321.297 111.376 320.132 110.411C318.967 109.445 317.518 108.962 315.785 108.962C314.01 108.962 312.532 109.445 311.353 110.411C310.189 111.376 309.315 112.676 308.733 114.31C308.164 115.929 307.88 117.74 307.88 119.743C307.88 121.732 308.164 123.536 308.733 125.155C309.315 126.774 310.189 128.067 311.353 129.033C312.532 129.984 314.01 130.46 315.785 130.46ZM352.204 148.955C349.434 148.955 347.055 148.578 345.066 147.825C343.077 147.087 341.479 146.092 340.272 144.842C339.065 143.592 338.227 142.207 337.758 140.688L344.704 139.004C345.016 139.643 345.471 140.276 346.067 140.901C346.664 141.54 347.467 142.065 348.475 142.477C349.498 142.903 350.783 143.116 352.332 143.116C354.519 143.116 356.33 142.584 357.765 141.518C359.2 140.467 359.917 138.734 359.917 136.32V130.119H359.533C359.136 130.915 358.553 131.732 357.786 132.57C357.033 133.408 356.032 134.111 354.782 134.679C353.546 135.247 351.991 135.531 350.116 135.531C347.602 135.531 345.322 134.942 343.276 133.763C341.245 132.57 339.626 130.794 338.418 128.436C337.225 126.064 336.629 123.095 336.629 119.53C336.629 115.936 337.225 112.903 338.418 110.432C339.626 107.946 341.252 106.064 343.298 104.786C345.343 103.493 347.623 102.847 350.137 102.847C352.055 102.847 353.631 103.173 354.867 103.827C356.117 104.466 357.112 105.24 357.85 106.149C358.589 107.044 359.15 107.889 359.533 108.685H359.96V103.273H367.566V136.533C367.566 139.331 366.898 141.646 365.563 143.479C364.228 145.311 362.403 146.682 360.087 147.591C357.772 148.5 355.144 148.955 352.204 148.955ZM352.268 129.48C353.901 129.48 355.293 129.082 356.444 128.287C357.594 127.491 358.468 126.348 359.065 124.857C359.661 123.365 359.96 121.575 359.96 119.487C359.96 117.428 359.661 115.624 359.065 114.075C358.482 112.527 357.616 111.327 356.465 110.474C355.329 109.608 353.93 109.175 352.268 109.175C350.549 109.175 349.114 109.622 347.964 110.517C346.813 111.412 345.947 112.641 345.364 114.203C344.782 115.751 344.491 117.513 344.491 119.487C344.491 121.49 344.782 123.244 345.364 124.75C345.961 126.241 346.835 127.406 347.985 128.244C349.15 129.068 350.577 129.48 352.268 129.48ZM383.184 92.3636V136H375.471V92.3636H383.184ZM405.604 136.639C402.323 136.639 399.489 135.957 397.103 134.594C394.73 133.216 392.905 131.27 391.627 128.756C390.348 126.227 389.709 123.251 389.709 119.828C389.709 116.462 390.348 113.507 391.627 110.964C392.919 108.408 394.723 106.419 397.039 104.999C399.354 103.564 402.074 102.847 405.199 102.847C407.216 102.847 409.12 103.173 410.909 103.827C412.713 104.466 414.304 105.46 415.682 106.81C417.074 108.159 418.168 109.878 418.963 111.966C419.759 114.04 420.157 116.511 420.157 119.381V121.746H393.331V116.547H412.763C412.749 115.07 412.429 113.756 411.804 112.605C411.179 111.44 410.306 110.524 409.184 109.857C408.076 109.189 406.783 108.855 405.306 108.855C403.729 108.855 402.344 109.239 401.151 110.006C399.958 110.759 399.027 111.753 398.36 112.989C397.706 114.21 397.373 115.553 397.358 117.016V121.554C397.358 123.457 397.706 125.091 398.402 126.455C399.098 127.804 400.071 128.841 401.321 129.565C402.571 130.276 404.034 130.631 405.711 130.631C406.833 130.631 407.848 130.474 408.757 130.162C409.667 129.835 410.455 129.359 411.123 128.734C411.79 128.109 412.294 127.335 412.635 126.412L419.837 127.222C419.382 129.125 418.516 130.787 417.238 132.207C415.973 133.614 414.354 134.707 412.38 135.489C410.405 136.256 408.147 136.639 405.604 136.639Z" fill="#292929"/>
<path d="M449.021 136V85.0909H468.112C472.023 85.0909 475.304 85.8201 477.956 87.2784C480.624 88.7367 482.638 90.7419 483.996 93.294C485.372 95.8295 486.06 98.7131 486.06 101.945C486.06 105.209 485.372 108.109 483.996 110.645C482.621 113.18 480.591 115.177 477.906 116.636C475.222 118.077 471.915 118.798 467.988 118.798H455.335V111.217H466.745C469.032 111.217 470.905 110.819 472.363 110.023C473.821 109.228 474.898 108.134 475.594 106.742C476.307 105.35 476.663 103.751 476.663 101.945C476.663 100.138 476.307 98.5473 475.594 97.1719C474.898 95.7964 473.813 94.7275 472.338 93.9652C470.88 93.1863 468.999 92.7969 466.695 92.7969H458.244V136H449.021ZM500.725 92.3636V136H493.012V92.3636H500.725ZM518.074 136.661C516 136.661 514.132 136.291 512.47 135.553C510.823 134.8 509.516 133.692 508.55 132.229C507.598 130.766 507.122 128.962 507.122 126.817C507.122 124.97 507.463 123.443 508.145 122.236C508.827 121.028 509.757 120.062 510.936 119.338C512.115 118.614 513.443 118.067 514.921 117.697C516.412 117.314 517.953 117.037 519.544 116.866C521.462 116.668 523.017 116.49 524.21 116.334C525.404 116.163 526.27 115.908 526.81 115.567C527.364 115.212 527.641 114.665 527.641 113.926V113.798C527.641 112.193 527.165 110.95 526.213 110.07C525.262 109.189 523.891 108.749 522.101 108.749C520.212 108.749 518.713 109.161 517.605 109.984C516.512 110.808 515.773 111.781 515.389 112.903L508.188 111.881C508.756 109.892 509.693 108.23 511 106.895C512.307 105.545 513.905 104.537 515.794 103.869C517.683 103.188 519.771 102.847 522.058 102.847C523.635 102.847 525.205 103.031 526.767 103.401C528.33 103.77 529.757 104.381 531.05 105.233C532.343 106.071 533.379 107.214 534.161 108.663C534.956 110.112 535.354 111.923 535.354 114.097V136H527.939V131.504H527.683C527.215 132.413 526.554 133.266 525.702 134.061C524.864 134.842 523.806 135.474 522.527 135.957C521.263 136.426 519.779 136.661 518.074 136.661ZM520.077 130.993C521.625 130.993 522.968 130.687 524.104 130.077C525.24 129.452 526.114 128.628 526.725 127.605C527.35 126.582 527.662 125.467 527.662 124.26V120.403C527.421 120.602 527.009 120.787 526.426 120.957C525.858 121.128 525.219 121.277 524.509 121.405C523.798 121.533 523.095 121.646 522.399 121.746C521.703 121.845 521.1 121.93 520.588 122.001C519.438 122.158 518.408 122.413 517.499 122.768C516.59 123.124 515.872 123.621 515.347 124.26C514.821 124.885 514.558 125.695 514.558 126.689C514.558 128.109 515.077 129.182 516.114 129.906C517.151 130.631 518.472 130.993 520.077 130.993ZM546.732 148.273C545.681 148.273 544.708 148.188 543.813 148.017C542.932 147.861 542.229 147.676 541.703 147.463L543.493 141.455C544.615 141.781 545.617 141.938 546.497 141.923C547.378 141.909 548.152 141.632 548.82 141.092C549.502 140.567 550.077 139.686 550.546 138.45L551.206 136.682L539.338 103.273H547.52L555.063 127.989H555.404L562.968 103.273H571.171L558.067 139.963C557.456 141.696 556.646 143.18 555.638 144.416C554.629 145.666 553.394 146.618 551.931 147.271C550.482 147.939 548.749 148.273 546.732 148.273Z" fill="#292929"/>
<path d="M207.352 59H198.876V32.8182H207.621C210.186 32.8182 212.389 33.3423 214.23 34.3906C216.071 35.4304 217.482 36.9261 218.462 38.8778C219.45 40.821 219.945 43.152 219.945 45.8707C219.945 48.598 219.446 50.9418 218.449 52.902C217.46 54.8622 216.028 56.3707 214.153 57.4276C212.278 58.4759 210.011 59 207.352 59ZM202.827 55.5483H207.135C209.129 55.5483 210.787 55.1733 212.108 54.4233C213.429 53.6648 214.418 52.5696 215.074 51.1378C215.73 49.6974 216.058 47.9418 216.058 45.8707C216.058 43.8168 215.73 42.0739 215.074 40.642C214.426 39.2102 213.459 38.1236 212.172 37.3821C210.885 36.6406 209.287 36.2699 207.378 36.2699H202.827V55.5483ZM228.807 32.8182V59H224.857V32.8182H228.807ZM248.84 39.696C248.703 38.4858 248.141 37.5483 247.152 36.8835C246.164 36.2102 244.919 35.8736 243.419 35.8736C242.346 35.8736 241.417 36.044 240.632 36.3849C239.848 36.7173 239.239 37.1776 238.804 37.7656C238.378 38.3452 238.165 39.0057 238.165 39.7472C238.165 40.3693 238.31 40.9062 238.6 41.358C238.898 41.8097 239.286 42.1889 239.763 42.4957C240.249 42.794 240.769 43.0455 241.323 43.25C241.877 43.446 242.409 43.608 242.921 43.7358L245.478 44.4006C246.313 44.6051 247.169 44.8821 248.047 45.2315C248.925 45.581 249.739 46.0412 250.489 46.6122C251.239 47.1832 251.844 47.8906 252.304 48.7344C252.773 49.5781 253.007 50.5881 253.007 51.7642C253.007 53.2472 252.624 54.5639 251.857 55.7145C251.098 56.8651 249.995 57.7727 248.546 58.4375C247.105 59.1023 245.363 59.4347 243.317 59.4347C241.357 59.4347 239.661 59.1236 238.229 58.5014C236.797 57.8793 235.676 56.9972 234.867 55.8551C234.057 54.7045 233.61 53.3409 233.525 51.7642H237.488C237.564 52.7102 237.871 53.4986 238.408 54.1293C238.953 54.7514 239.648 55.2159 240.492 55.5227C241.344 55.821 242.277 55.9702 243.292 55.9702C244.408 55.9702 245.401 55.7955 246.27 55.446C247.148 55.0881 247.838 54.5937 248.341 53.9631C248.844 53.3239 249.096 52.5781 249.096 51.7259C249.096 50.9503 248.874 50.3153 248.431 49.821C247.996 49.3267 247.404 48.9176 246.654 48.5938C245.912 48.2699 245.073 47.9844 244.135 47.7372L241.042 46.8935C238.945 46.3224 237.283 45.483 236.056 44.375C234.837 43.267 234.228 41.8011 234.228 39.9773C234.228 38.4687 234.637 37.152 235.455 36.027C236.273 34.902 237.381 34.0284 238.779 33.4062C240.176 32.7756 241.753 32.4602 243.509 32.4602C245.282 32.4602 246.846 32.7713 248.201 33.3935C249.564 34.0156 250.638 34.8722 251.422 35.9631C252.206 37.0455 252.615 38.2898 252.65 39.696H248.84ZM257.728 59V32.8182H267.06C269.097 32.8182 270.785 33.1889 272.123 33.9304C273.461 34.6719 274.462 35.6861 275.127 36.973C275.792 38.2514 276.124 39.6918 276.124 41.294C276.124 42.9048 275.788 44.3537 275.114 45.6406C274.45 46.919 273.444 47.9332 272.097 48.6832C270.759 49.4247 269.076 49.7955 267.048 49.7955H260.63V46.446H266.69C267.977 46.446 269.021 46.2244 269.822 45.7812C270.623 45.3295 271.211 44.7159 271.586 43.9403C271.961 43.1648 272.148 42.2827 272.148 41.294C272.148 40.3054 271.961 39.4276 271.586 38.6605C271.211 37.8935 270.619 37.2926 269.809 36.858C269.008 36.4233 267.951 36.206 266.638 36.206H261.678V59H257.728ZM303.498 45.9091C303.498 48.7045 302.987 51.108 301.964 53.1193C300.941 55.1222 299.539 56.6648 297.758 57.7472C295.985 58.821 293.97 59.358 291.711 59.358C289.444 59.358 287.42 58.821 285.639 57.7472C283.866 56.6648 282.468 55.1179 281.446 53.1065C280.423 51.0952 279.912 48.696 279.912 45.9091C279.912 43.1136 280.423 40.7145 281.446 38.7116C282.468 36.7003 283.866 35.1577 285.639 34.0838C287.42 33.0014 289.444 32.4602 291.711 32.4602C293.97 32.4602 295.985 33.0014 297.758 34.0838C299.539 35.1577 300.941 36.7003 301.964 38.7116C302.987 40.7145 303.498 43.1136 303.498 45.9091ZM299.586 45.9091C299.586 43.7784 299.241 41.9844 298.551 40.527C297.869 39.0611 296.931 37.9531 295.738 37.2031C294.554 36.4446 293.211 36.0653 291.711 36.0653C290.203 36.0653 288.856 36.4446 287.672 37.2031C286.487 37.9531 285.549 39.0611 284.859 40.527C284.177 41.9844 283.836 43.7784 283.836 45.9091C283.836 48.0398 284.177 49.8381 284.859 51.304C285.549 52.7614 286.487 53.8693 287.672 54.6278C288.856 55.3778 290.203 55.7528 291.711 55.7528C293.211 55.7528 294.554 55.3778 295.738 54.6278C296.931 53.8693 297.869 52.7614 298.551 51.304C299.241 49.8381 299.586 48.0398 299.586 45.9091ZM329.555 32.8182V59H325.925L312.616 39.7983H312.374V59H308.423V32.8182H312.08L325.401 52.0455H325.643V32.8182H329.555ZM339.268 32.8182V59H335.318V32.8182H339.268ZM347.309 32.8182L354.596 54.142H354.89L362.177 32.8182H366.447L357.025 59H352.461L343.039 32.8182H347.309ZM370.228 59V32.8182H386.643V36.2188H374.178V44.196H385.786V47.5838H374.178V55.5994H386.796V59H370.228ZM391.919 59V32.8182H395.87V55.5994H407.733V59H391.919ZM442.899 32.8182V59H439.268L425.96 39.7983H425.717V59H421.767V32.8182H425.423L438.744 52.0455H438.987V32.8182H442.899ZM471.404 45.9091C471.404 48.7045 470.893 51.108 469.87 53.1193C468.848 55.1222 467.446 56.6648 465.664 57.7472C463.892 58.821 461.876 59.358 459.618 59.358C457.35 59.358 455.326 58.821 453.545 57.7472C451.772 56.6648 450.375 55.1179 449.352 53.1065C448.329 51.0952 447.818 48.696 447.818 45.9091C447.818 43.1136 448.329 40.7145 449.352 38.7116C450.375 36.7003 451.772 35.1577 453.545 34.0838C455.326 33.0014 457.35 32.4602 459.618 32.4602C461.876 32.4602 463.892 33.0014 465.664 34.0838C467.446 35.1577 468.848 36.7003 469.87 38.7116C470.893 40.7145 471.404 43.1136 471.404 45.9091ZM467.493 45.9091C467.493 43.7784 467.147 41.9844 466.457 40.527C465.775 39.0611 464.838 37.9531 463.645 37.2031C462.46 36.4446 461.118 36.0653 459.618 36.0653C458.109 36.0653 456.762 36.4446 455.578 37.2031C454.393 37.9531 453.456 39.0611 452.765 40.527C452.083 41.9844 451.743 43.7784 451.743 45.9091C451.743 48.0398 452.083 49.8381 452.765 51.304C453.456 52.7614 454.393 53.8693 455.578 54.6278C456.762 55.3778 458.109 55.7528 459.618 55.7528C461.118 55.7528 462.46 55.3778 463.645 54.6278C464.838 53.8693 465.775 52.7614 466.457 51.304C467.147 49.8381 467.493 48.0398 467.493 45.9091Z" fill="#292929"/>
</svg>
